<?xml version="1.0" encoding="iso-8859-1"?>
<!-- Generator: Adobe Illustrator 19.0.0, SVG Export Plug-In . SVG Version: 6.00 Build 0)  -->
<svg version="1.1" id="Layer_1" xmlns="http://www.w3.org/2000/svg" xmlns:xlink="http://www.w3.org/1999/xlink" x="0px" y="0px"
	 viewBox="0 0 512 512" style="enable-background:new 0 0 512 512;" xml:space="preserve">
<g>
	<g>
		<path d="M83.592,119.118v109.714h26.122V512h292.571V228.833h25.078V119.118H83.592z M211.069,496.327h-85.682v-40.96h85.682
			V496.327z M284.212,285.466v40.96H125.388v-40.96H284.212z M125.388,269.793v-40.96h85.682v40.96H125.388z M211.069,342.1v40.96
			h-85.682V342.1H211.069z M284.212,398.733v40.96H125.388v-40.96H284.212z M386.612,496.327H226.743v-40.96h159.869V496.327z
			 M386.612,439.693h-86.727v-40.96h86.727V439.693z M386.612,383.06H226.743V342.1h159.869V383.06z M386.612,326.426h-86.727
			v-40.96h86.727V326.426z M386.612,269.793H226.743v-40.96h159.869V269.793z M411.69,213.159h-9.404H109.714H99.265v-78.367h31.198
			v28.212h15.673v-28.212h31.198v28.212h15.673v-28.212h31.198v28.212h15.673v-28.212h31.198v28.212h15.674v-28.212h31.198v28.212
			h15.673v-28.212h31.198v28.212h15.673v-28.212h31.199V213.159z"/>
	</g>
</g>
<g>
	<g>
		<path d="M415.971,58.514H299.413c-3.745,0-6.792-3.047-6.792-6.792c0-3.745,3.047-6.792,6.792-6.792h57.098
			c12.387,0,22.465-10.078,22.465-22.465S368.899,0,356.512,0H96.029C83.642,0,73.564,10.078,73.564,22.465
			s10.078,22.465,22.465,22.465h108.063c3.745,0,6.792,3.047,6.792,6.792c0,3.745-3.047,6.792-6.792,6.792h-43.413
			c-12.387,0-22.465,10.078-22.465,22.465s10.078,22.465,22.465,22.465h255.292c12.387,0,22.465-10.078,22.465-22.465
			S428.358,58.514,415.971,58.514z M415.971,87.771H160.678c-3.745,0-6.792-3.047-6.792-6.792c0-3.745,3.047-6.792,6.792-6.792
			h43.413c12.387,0,22.465-10.078,22.465-22.465s-10.078-22.465-22.465-22.465H96.029c-3.745,0-6.792-3.047-6.792-6.792
			c0-3.745,3.047-6.792,6.792-6.792h260.483c3.745,0,6.792,3.047,6.792,6.792c0,3.745-3.047,6.792-6.792,6.792h-57.098
			c-12.387,0-22.465,10.078-22.465,22.465s10.078,22.465,22.465,22.465H415.97c3.745,0,6.792,3.047,6.792,6.792
			C422.762,84.724,419.716,87.771,415.971,87.771z"/>
	</g>
</g>
<g>
</g>
<g>
</g>
<g>
</g>
<g>
</g>
<g>
</g>
<g>
</g>
<g>
</g>
<g>
</g>
<g>
</g>
<g>
</g>
<g>
</g>
<g>
</g>
<g>
</g>
<g>
</g>
<g>
</g>
</svg>
