<svg height="512pt" viewBox="-61 0 512 512" width="512pt" xmlns="http://www.w3.org/2000/svg">
  <path
    d="m19 391.167969c4.140625 0 7.5-3.359375 7.5-7.5v-19.835938c0-4.140625-3.359375-7.5-7.5-7.5s-7.5 3.359375-7.5 7.5v19.835938c0 4.140625 3.359375 7.5 7.5 7.5zm0 0"/>
  <path
    d="m349.25 112h-70.75v-16.25c0-4.144531-3.359375-7.5-7.5-7.5s-7.5 3.355469-7.5 7.5v88.75h-157.519531c-3.019531-10.109375-12.402344-17.5-23.480469-17.5s-20.460938 7.390625-23.480469 17.5h-32.519531v-128.5h237v7.75c0 4.144531 3.359375 7.5 7.5 7.5s7.5-3.355469 7.5-7.5v-7.75c6.339844 0 11.5-5.160156 11.5-11.5v-33c0-6.339844-5.160156-11.5-11.5-11.5h-267c-6.339844 0-11.5 5.160156-11.5 11.5v33c0 6.339844 5.160156 11.5 11.5 11.5v275.832031c0 4.144531 3.359375 7.5 7.5 7.5s7.5-3.355469 7.5-7.5v-132.332031h32.839844c3.324218 9.59375 12.449218 16.5 23.160156 16.5s19.835938-6.90625 23.160156-16.5h157.839844v240.5h-42.582031c-5.191407 0-9.417969-4.226562-9.417969-9.417969v-79.082031c0-10.753906-8.746094-19.5-19.5-19.5h-94c-10.753906 0-19.5 8.746094-19.5 19.5v79.082031c0 5.191407-4.222656 9.417969-9.417969 9.417969h-42.582031v-24c0-4.144531-3.359375-7.5-7.5-7.5s-7.5 3.355469-7.5 7.5v24c-6.339844 0-11.5 5.160156-11.5 11.5v49c0 6.339844 5.160156 11.5 11.5 11.5h267c6.339844 0 11.5-5.160156 11.5-11.5v-49c0-6.339844-5.160156-11.5-11.5-11.5v-283h62.769531c1.980469 0 3.59375 1.589844 3.59375 3.546875v146.953125c0 12.40625 10.125 22.5 22.570313 22.5 12.445312 0 22.566406-10.09375 22.566406-22.5v-154.898438c0-22.386718-18.28125-40.601562-40.75-40.601562zm-334.25-97h260v26h-260zm67.5 186c-5.109375 0-9.292969-4.058594-9.492188-9.121094 0-.070312-.003906-.140625-.003906-.207031-.003906-.058594-.003906-.113281-.003906-.171875 0-5.238281 4.261719-9.5 9.5-9.5s9.5 4.261719 9.5 9.5c0 .058594 0 .113281-.003906.171875 0 .066406-.003906.136719-.003906.207031-.199219 5.0625-4.382813 9.121094-9.492188 9.121094zm11 229.582031v-79.082031c0-2.480469 2.019531-4.5 4.5-4.5h94c2.480469 0 4.5 2.019531 4.5 4.5v79.082031c0 3.335938.671875 6.519531 1.890625 9.417969h-106.78125c1.21875-2.898438 1.890625-6.082031 1.890625-9.417969zm181.5 66.417969h-260v-42h260zm100-189.5c0 4.136719-3.394531 7.5-7.566406 7.5s-7.570313-3.363281-7.570313-7.5v-146.953125c0-10.226563-8.339843-18.546875-18.59375-18.546875h-62.769531v-15h70.75c14.199219 0 25.75 11.484375 25.75 25.601562zm0 0"/>
  <path
    d="m161.621094 378.703125c-3.605469 2.035156-4.882813 6.609375-2.847656 10.21875 1.292968 2.292969 1.976562 4.914063 1.976562 7.578125 0 8.546875-6.953125 15.5-15.5 15.5s-15.5-6.953125-15.5-15.5c0-2.664062.683594-5.285156 1.976562-7.578125 2.035157-3.609375.757813-8.183594-2.847656-10.21875-3.609375-2.035156-8.183594-.757813-10.21875 2.851563-2.558594 4.539062-3.910156 9.707031-3.910156 14.945312 0 16.816406 13.679688 30.5 30.5 30.5 16.816406 0 30.5-13.683594 30.5-30.5 0-5.238281-1.355469-10.40625-3.914062-14.945312-2.03125-3.613282-6.605469-4.886719-10.214844-2.851563zm0 0"/>
  <path
    d="m145.25 400c4.140625 0 7.5-3.355469 7.5-7.5v-25c0-4.144531-3.359375-7.5-7.5-7.5s-7.5 3.355469-7.5 7.5v25c0 4.144531 3.359375 7.5 7.5 7.5zm0 0"/>
  <path
    d="m223 240.5c0-13.511719-10.992188-24.5-24.5-24.5s-24.5 10.988281-24.5 24.5 10.992188 24.5 24.5 24.5 24.5-10.988281 24.5-24.5zm-34 0c0-5.238281 4.261719-9.5 9.5-9.5s9.5 4.261719 9.5 9.5-4.261719 9.5-9.5 9.5-9.5-4.261719-9.5-9.5zm0 0"/>
  <path
    d="m136 271.5c0-12.40625-10.09375-22.5-22.5-22.5s-22.5 10.09375-22.5 22.5 10.09375 22.5 22.5 22.5 22.5-10.09375 22.5-22.5zm-30 0c0-4.136719 3.363281-7.5 7.5-7.5s7.5 3.363281 7.5 7.5-3.363281 7.5-7.5 7.5-7.5-3.363281-7.5-7.5zm0 0"/>
</svg>
